<?xml version="1.0" standalone="no"?>
<!DOCTYPE svg PUBLIC "-//W3C//DTD SVG 20010904//EN"
 "http://www.w3.org/TR/2001/REC-SVG-20010904/DTD/svg10.dtd">
<svg version="1.0" xmlns="http://www.w3.org/2000/svg"
 width="193.000000pt" height="53.000000pt" viewBox="0 0 193.000000 53.000000"
 preserveAspectRatio="xMidYMid meet">

<g transform="translate(0.000000,53.000000) scale(0.100000,-0.100000)"
fill="#000000" stroke="none">
<path d="M28 439 c-3 -83 -1 -91 18 -104 20 -13 22 -23 21 -107 0 -51 -2 -78
-4 -60 -3 18 -10 32 -18 32 -7 0 -20 3 -29 6 -14 5 -16 -4 -16 -64 l0 -70 30
11 c17 6 30 19 30 28 0 9 9 19 20 22 15 4 20 14 20 36 0 17 5 31 10 31 13 0
13 -47 0 -55 -5 -3 -10 -15 -10 -26 0 -10 -3 -19 -8 -19 -4 0 -6 -20 -4 -44 4
-43 5 -44 43 -48 35 -3 44 1 76 34 27 27 39 34 45 25 6 -9 10 -9 18 3 9 13 11
13 20 0 8 -12 10 -11 10 8 0 13 6 22 15 22 8 0 15 5 15 10 0 6 5 10 10 10 13
0 13 -37 0 -42 -6 -2 -4 -19 5 -43 l13 -40 4 50 4 50 2 -47 2 -48 765 0 765 0
0 265 0 265 -130 0 -130 0 1 -107 c0 -60 4 -134 8 -165 4 -32 3 -58 -1 -58 -4
0 -8 23 -8 50 0 43 -3 50 -20 50 -19 0 -20 7 -20 115 l0 115 -151 0 -150 0 5
-122 c2 -68 7 -143 11 -168 4 -25 5 -43 1 -39 -3 3 -7 20 -8 38 -1 18 -8 36
-15 38 -10 4 -13 38 -13 129 l0 124 -276 0 -277 0 5 -165 c2 -91 2 -165 -1
-165 -4 0 -6 12 -7 28 0 15 -1 89 -2 165 l-2 137 -40 0 -40 0 0 -125 c0 -77 4
-125 10 -125 6 0 10 -19 10 -42 0 -48 -8 -47 -12 1 -1 18 -8 36 -15 38 -10 4
-13 38 -13 129 l0 124 -60 0 -60 0 0 -57 c0 -36 -4 -53 -9 -44 -6 9 -25 12
-65 10 l-57 -4 6 48 7 48 -38 -3 c-31 -2 -40 -7 -42 -24 -5 -32 -68 -38 -88
-10 -12 18 -23 20 -89 17 -49 -2 -75 1 -75 8 0 6 -4 11 -9 11 -5 0 -11 -41
-13 -91z m456 -87 c-4 -9 -7 -22 -6 -27 1 -6 -10 -24 -24 -40 -14 -17 -23 -25
-20 -18 4 6 1 13 -5 15 -19 6 0 48 27 58 18 7 24 18 25 42 1 25 3 27 6 10 3
-13 1 -31 -3 -40z m52 -117 c8 -19 12 -35 9 -35 -3 0 -14 19 -24 42 l-18 43
-12 -37 c-7 -21 -16 -40 -21 -43 -5 -3 0 17 12 45 23 55 24 55 54 -15z m383
12 c11 -26 18 -47 15 -47 -5 0 -44 86 -44 97 0 12 9 -4 29 -50z m633 -9 c2
-21 0 -38 -4 -38 -4 0 -7 24 -7 53 1 54 5 49 11 -15z m212 37 c-14 -21 -15
-31 -5 -53 11 -25 10 -26 -4 -8 -8 11 -15 26 -15 34 0 19 19 52 31 52 5 0 2
-11 -7 -25z m-1185 -15 c3 -3 3 -27 0 -55 l-6 -50 -2 45 c-1 25 -4 56 -6 70
-3 14 -2 18 1 10 4 -8 10 -17 13 -20z m-492 -47 c-3 -10 -5 -2 -5 17 0 19 2
27 5 18 2 -10 2 -26 0 -35z m610 0 c-3 -10 -5 -2 -5 17 0 19 2 27 5 18 2 -10
2 -26 0 -35z m89 14 c8 -4 14 -13 14 -19 0 -6 -9 -3 -20 7 -11 10 -20 25 -19
34 0 14 1 14 6 1 3 -8 12 -19 19 -23z m295 1 c-3 -21 -6 -26 -9 -15 -3 17 3
47 11 47 2 0 1 -15 -2 -32z m37 -9 c-3 -20 -5 -19 -9 9 -3 20 -2 29 4 23 5 -5
7 -19 5 -32z m37 12 c0 -16 -3 -27 -7 -24 -13 7 -7 53 6 53 1 0 1 -13 1 -29z
m52 -18 c-3 -10 -5 -2 -5 17 0 19 2 27 5 18 2 -10 2 -26 0 -35z m155 30 c-5
-10 -7 -25 -5 -33 3 -9 0 -8 -7 3 -9 14 -9 22 0 33 17 19 23 18 12 -3z m-745
-30 c-3 -10 -5 -4 -5 12 0 17 2 24 5 18 2 -7 2 -21 0 -30z m383 -6 c0 -6 -9
-2 -20 8 -11 10 -20 23 -20 28 0 6 9 2 20 -8 11 -10 20 -23 20 -28z m49 -1
c-2 -2 -13 8 -23 22 l-19 27 24 -22 c12 -12 21 -24 18 -27z m228 7 c-3 -10 -5
-4 -5 12 0 17 2 24 5 18 2 -7 2 -21 0 -30z m172 -7 c-2 -2 -13 8 -23 22 l-19
27 24 -22 c12 -12 21 -24 18 -27z m-1011 -17 c-3 -20 -5 -19 -9 9 -3 20 -2 29
4 23 5 -5 7 -19 5 -32z m809 19 c-3 -8 -6 -5 -6 6 -1 11 2 17 5 13 3 -3 4 -12
1 -19z m-847 -63 c-32 -19 -44 -19 -28 0 7 8 22 14 33 14 18 0 17 -1 -5 -14z
m144 0 c3 -9 0 -15 -9 -15 -8 0 -15 7 -15 15 0 8 4 15 9 15 5 0 11 -7 15 -15z
m116 0 c0 -8 -4 -15 -10 -15 -5 0 -10 7 -10 15 0 8 5 15 10 15 6 0 10 -7 10
-15z m-453 -17 c-3 -8 -6 -5 -6 6 -1 11 2 17 5 13 3 -3 4 -12 1 -19z m970 0
c-3 -8 -6 -5 -6 6 -1 11 2 17 5 13 3 -3 4 -12 1 -19z m163 -23 c14 -19 14 -19
-2 -6 -10 7 -18 18 -18 24 0 6 1 8 3 6 1 -2 9 -13 17 -24z m-370 -10 c14 -19
14 -19 -2 -6 -10 7 -18 18 -18 24 0 6 1 8 3 6 1 -2 9 -13 17 -24z m671 8 c13
-16 12 -17 -3 -4 -17 13 -22 21 -14 21 2 0 10 -8 17 -17z"/>
</g>
</svg>
